<svg width="160" height="160" viewBox="0 0 160 160" fill="none" xmlns="http://www.w3.org/2000/svg">
<g id="&#231;&#188;&#150;&#231;&#187;&#132; 10">
<path id="&#229;&#189;&#162;&#231;&#138;&#182;&#231;&#187;&#147;&#229;&#144;&#136;" d="M133.953 75.9531C136.188 75.9531 138 77.7652 138 80C138 112.032 112.032 138 80 138C64.0578 138 49.1869 131.52 38.4141 120.434L35.2803 129.838C34.5735 131.958 32.2822 133.104 30.1621 132.397C28.1151 131.715 26.9761 129.554 27.5361 127.498L27.6025 127.278L32.9463 111.247C33.1814 110.433 33.6734 109.685 34.4033 109.137C34.9251 108.745 35.5111 108.499 36.1123 108.391C36.1191 108.389 36.126 108.388 36.1328 108.387L36.2383 108.369C36.2587 108.366 36.2793 108.364 36.2998 108.361C36.319 108.359 36.3382 108.356 36.3574 108.354C36.3978 108.349 36.4381 108.344 36.4785 108.341C36.5243 108.337 36.5702 108.334 36.6162 108.331C36.6221 108.331 36.6279 108.33 36.6338 108.33C36.8215 108.321 37.011 108.324 37.2012 108.342C37.2077 108.342 37.2142 108.343 37.2207 108.344C37.3426 108.355 37.4648 108.372 37.5869 108.396C37.5925 108.397 37.5979 108.398 37.6035 108.399C37.6615 108.411 37.7195 108.423 37.7773 108.437C37.7842 108.438 37.791 108.44 37.7979 108.441C37.9044 108.468 38.0112 108.498 38.1172 108.533C38.9697 108.817 39.6642 109.358 40.1445 110.041C49.5214 122.461 64.138 129.907 80 129.907C107.563 129.907 129.907 107.563 129.907 80C129.907 77.7653 131.718 75.9533 133.953 75.9531ZM96.1855 48.9766C104.38 48.9766 111.023 55.6193 111.023 63.8135V96.1855C111.023 104.38 104.38 111.023 96.1855 111.023H63.8135C55.6193 111.023 48.9766 104.38 48.9766 96.1855V63.8135C48.9768 55.6195 55.6195 48.9768 63.8135 48.9766H96.1855ZM63.8135 57.0693C60.0891 57.0696 57.0696 60.0891 57.0693 63.8135V96.1855C57.0693 99.9101 60.089 102.929 63.8135 102.93H96.1855C99.9103 102.93 102.93 99.9103 102.93 96.1855V63.8135C102.929 60.089 99.9101 57.0693 96.1855 57.0693H63.8135ZM80 22C95.9416 22 110.812 28.4792 121.585 39.5654L124.72 30.1621C125.427 28.0422 127.718 26.8959 129.838 27.6025C131.958 28.3092 133.103 30.6015 132.396 32.7217L127.053 48.752C126.818 49.5666 126.327 50.3149 125.597 50.8633C125.075 51.255 124.49 51.4998 123.889 51.6084C123.87 51.6119 123.851 51.615 123.832 51.6182C123.789 51.6253 123.746 51.632 123.703 51.6377C123.682 51.6406 123.66 51.6429 123.639 51.6455C123.597 51.6504 123.555 51.6556 123.513 51.6592C123.484 51.6616 123.456 51.6632 123.428 51.665C123.396 51.667 123.365 51.6686 123.334 51.6699C123.29 51.6718 123.246 51.6734 123.201 51.6738C123.187 51.6739 123.173 51.6739 123.158 51.6738C123.106 51.6738 123.053 51.673 123.001 51.6709C122.989 51.6704 122.978 51.6695 122.966 51.6689C122.91 51.6662 122.855 51.6623 122.799 51.6572C122.791 51.6565 122.783 51.656 122.775 51.6553C122.725 51.6504 122.675 51.6445 122.625 51.6377C122.603 51.6347 122.58 51.6313 122.558 51.6279C122.512 51.6209 122.466 51.6131 122.42 51.6045C122.409 51.6024 122.397 51.5999 122.386 51.5977C122.331 51.5869 122.276 51.5756 122.222 51.5625C122.212 51.5601 122.202 51.5571 122.192 51.5547C122.145 51.543 122.099 51.531 122.052 51.5176C122.024 51.5096 121.996 51.5007 121.969 51.4922C121.94 51.4834 121.911 51.4762 121.883 51.4668C121.871 51.4629 121.86 51.458 121.849 51.4541C121.835 51.4493 121.821 51.4435 121.807 51.4385C121.001 51.1522 120.342 50.6358 119.877 49.9873C110.501 37.5506 95.8741 30.0928 80 30.0928C52.4371 30.0928 30.0928 52.4371 30.0928 80C30.0928 82.2347 28.2815 84.0467 26.0469 84.0469C23.812 84.0469 22 82.2348 22 80C22 47.9675 47.9675 22 80 22ZM85.3955 65.1631C87.6302 65.1632 89.4412 66.9744 89.4414 69.209C89.4414 71.3693 87.7488 73.1347 85.6172 73.25L85.3955 73.2559H74.6045C72.3697 73.2558 70.5586 71.4438 70.5586 69.209C70.5588 67.0488 72.2513 65.2842 74.3828 65.1689L74.6045 65.1631H85.3955Z" fill="url(#paint0_linear_128_1904)"/>
</g>
<defs>
<linearGradient id="paint0_linear_128_1904" x1="138" y1="22" x2="22" y2="22" gradientUnits="userSpaceOnUse">
<stop stop-color="#58DDFF"/>
<stop offset="0.491415" stop-color="#269DEF"/>
<stop offset="1" stop-color="#007BFF"/>
</linearGradient>
</defs>
</svg>
