<svg width="136" height="136" viewBox="0 0 136 136" fill="none" xmlns="http://www.w3.org/2000/svg">
<path d="M68 136C30.6 136 0 105.4 0 68C0 30.6 30.6 0 68 0C105.4 0 136 30.6 136 68C136 105.4 105.4 136 68 136Z" fill="#F0F6FF"/>
<path d="M81.0232 105.504H52.1519C48.8135 105.504 46.084 102.774 46.084 99.4364V37.5787C46.084 34.2414 48.8146 31.5107 52.1519 31.5107H81.0232C84.3605 31.5107 87.0912 34.2414 87.0912 37.5787V99.4353C87.0912 102.774 84.3605 105.504 81.0232 105.504Z" fill="#FDFBF8"/>
<path fill-rule="evenodd" clip-rule="evenodd" d="M52.815 106.458H80.3593C84.5976 106.458 88.0454 103.01 88.0454 98.7723V38.2438C88.0454 34.0055 84.5976 30.5566 80.3593 30.5566H52.815C48.5767 30.5566 45.1289 34.0055 45.1289 38.2438V98.7723C45.1289 103.01 48.5767 106.458 52.815 106.458ZM47.0372 38.2438C47.0372 35.0574 49.6286 32.466 52.815 32.466H80.3593C83.5447 32.466 86.1372 35.0574 86.1372 38.2438V98.7723C86.1372 101.958 83.5457 104.549 80.3593 104.549H52.815C49.6297 104.549 47.0372 101.958 47.0372 98.7723V38.2438Z" fill="#474341"/>
<path d="M51.9521 39.2412H81.8084V91.5056H51.9521L51.9521 39.2412Z" fill="#DFF1FA"/>
<path fill-rule="evenodd" clip-rule="evenodd" d="M51.4789 71.7259C51.6042 71.8512 51.7742 71.9216 51.9515 71.9215C52.3203 71.9217 52.6194 71.623 52.6198 71.2543V39.9105H78.2962C78.5393 39.9174 78.7669 39.7916 78.8904 39.5822C79.014 39.3728 79.014 39.1127 78.8904 38.9033C78.7669 38.6939 78.5393 38.5681 78.2962 38.575H51.9515L51.2832 39.2422V71.2532C51.2831 71.4305 51.3535 71.6005 51.4789 71.7259ZM51.9515 92.1749H81.8099L82.4782 91.5066V49.0417C82.4782 48.6726 82.179 48.3733 81.8099 48.3733C81.4408 48.3733 81.1416 48.6726 81.1416 49.0417V90.8383H52.6198V82.3606C52.6198 81.9915 52.3206 81.6923 51.9515 81.6923C51.5824 81.6923 51.2832 81.9915 51.2832 82.3606V91.5066L51.9515 92.1749Z" fill="#474341"/>
<path d="M69.6964 97.8224C69.6964 99.2291 68.5553 100.371 67.1475 100.371C65.7407 100.371 64.5996 99.2302 64.5996 97.8224C64.5996 96.4156 65.7407 95.2734 67.1475 95.2734C68.5553 95.2745 69.6964 96.4156 69.6964 97.8224Z" fill="#DFDEDE"/>
<path fill-rule="evenodd" clip-rule="evenodd" d="M64.4151 36.0838H67.7545C67.9011 36.0838 68.0212 35.9637 68.0212 35.8171V35.1275C68.0212 34.9809 67.9011 34.8608 67.7545 34.8608H64.4151C64.2674 34.8608 64.1473 34.9809 64.1473 35.1275V35.8171C64.1482 35.9644 64.2677 36.0835 64.4151 36.0838ZM67.1478 101.039C65.3745 101.039 63.9316 99.5968 63.9316 97.8225C63.9316 96.0492 65.3745 94.6063 67.1478 94.6063C68.9211 94.6063 70.364 96.0492 70.364 97.8225C70.364 99.5968 68.9211 101.039 67.1478 101.039ZM67.1478 95.9418C66.1101 95.9426 65.269 96.7837 65.2683 97.8214C65.2683 98.8595 66.1119 99.702 67.1478 99.702C68.1859 99.7011 69.0271 98.8595 69.0274 97.8214C69.0285 96.7855 68.1848 95.9418 67.1478 95.9418Z" fill="#474341"/>
<path d="M86.8545 46.6648V40.3599C86.8545 40.1176 87.0532 39.9189 87.2954 39.9189H89.0751C89.3174 39.9189 89.5161 40.1176 89.5161 40.3599V46.6648C89.5161 46.9081 89.3174 47.1057 89.0751 47.1057H87.2954C87.0521 47.1057 86.8545 46.907 86.8545 46.6648Z" fill="#AEABAA"/>
<path fill-rule="evenodd" clip-rule="evenodd" d="M87.8632 47.7732H88.505C89.4312 47.7725 90.1819 47.0218 90.1827 46.0955V40.9296C90.1819 40.0034 89.4312 39.2527 88.505 39.252H87.8632C86.937 39.2527 86.1863 40.0034 86.1855 40.9296V46.0955C86.1863 47.0218 86.937 47.7725 87.8632 47.7732ZM87.5211 40.9296C87.5214 40.7408 87.6744 40.5878 87.8632 40.5875H88.505C88.6938 40.5878 88.8468 40.7408 88.8471 40.9296V46.0955C88.8468 46.2843 88.6938 46.4373 88.505 46.4376H87.8632C87.6744 46.4373 87.5214 46.2843 87.5211 46.0955V40.9296Z" fill="#474341"/>
<path d="M60.7658 88.7709H55.6053C55.2337 88.7697 54.9328 88.4688 54.9316 88.0973V82.9378C54.9325 82.5661 55.2336 82.265 55.6053 82.2642H60.7658C61.1375 82.265 61.4386 82.5661 61.4395 82.9378V88.0973C61.4389 88.4691 61.1376 88.7703 60.7658 88.7709Z" fill="#0F95BC"/>
<path fill-rule="evenodd" clip-rule="evenodd" d="M56.4747 89.4392H59.897C61.1157 89.4392 62.107 88.4479 62.1081 87.2281V83.8058C62.1081 82.586 61.1157 81.5947 59.897 81.5947H56.4747C55.256 81.5947 54.2637 82.5871 54.2637 83.8058V87.2281C54.2637 88.4479 55.256 89.4392 56.4747 89.4392ZM55.5992 83.8058C55.6001 83.3228 55.9917 82.9316 56.4747 82.9314H59.897C60.3797 82.9321 60.7708 83.3232 60.7715 83.8058V87.2281C60.7708 87.7107 60.3797 88.1018 59.897 88.1025H56.4747C55.9916 88.1025 55.5998 87.7112 55.5992 87.2281V83.8058Z" fill="#474341"/>
<path d="M69.967 88.7709H64.8064C64.4349 88.7697 64.134 88.4688 64.1328 88.0973V82.9378C64.1337 82.5661 64.4348 82.265 64.8064 82.2642H69.967C70.3387 82.265 70.6397 82.5661 70.6406 82.9378V88.0973C70.6395 88.4688 70.3385 88.7697 69.967 88.7709Z" fill="#92BE33"/>
<path fill-rule="evenodd" clip-rule="evenodd" d="M65.6749 89.4392H69.0972C70.3159 89.4392 71.3083 88.4479 71.3083 87.2281V83.8058C71.3083 82.586 70.3159 81.5947 69.0972 81.5947H65.6749C64.4552 81.5947 63.4639 82.5871 63.4639 83.8058V87.2281C63.4639 88.4479 64.4562 89.4392 65.6749 89.4392ZM64.8005 83.8058C64.8012 83.3232 65.1923 82.9321 65.6749 82.9314H69.0962C69.5793 82.9314 69.9711 83.3227 69.9717 83.8058V87.2281C69.9712 87.7109 69.58 88.1021 69.0972 88.1025H65.6749C65.1923 88.1018 64.8012 87.7107 64.8005 87.2281V83.8058Z" fill="#474341"/>
<path d="M78.9426 88.7709H73.782C73.4105 88.7697 73.1096 88.4688 73.1084 88.0973V82.9378C73.1093 82.5661 73.4104 82.265 73.782 82.2642H78.9426C79.3143 82.265 79.6153 82.5661 79.6162 82.9378V88.0973C79.6153 88.469 79.3143 88.77 78.9426 88.7709Z" fill="#FDFBF8"/>
<path fill-rule="evenodd" clip-rule="evenodd" d="M74.6515 89.4392H78.0738C79.2925 89.4392 80.2849 88.4479 80.2849 87.2281V83.8058C80.2849 82.586 79.2925 81.5947 78.0738 81.5947H74.6515C73.4328 81.5947 72.4404 82.5871 72.4404 83.8058V87.2281C72.4404 88.4479 73.4328 89.4392 74.6515 89.4392ZM73.776 83.8058C73.7769 83.3228 74.1685 82.9316 74.6515 82.9314H78.0738C78.5564 82.9321 78.9475 83.3232 78.9482 83.8058V87.2281C78.9475 87.7107 78.5564 88.1018 78.0738 88.1025H74.6515C74.1684 88.1025 73.7766 87.7112 73.776 87.2281V83.8058Z" fill="#474341"/>
<path d="M60.093 50.1733H54.9324C54.5609 50.1721 54.26 49.8712 54.2588 49.4996V44.3401C54.2597 43.9685 54.5607 43.6674 54.9324 43.6665H60.093C60.4646 43.6674 60.7657 43.9685 60.7666 44.3401V49.4996C60.7654 49.8712 60.4645 50.1721 60.093 50.1733Z" fill="#EC6646"/>
<path fill-rule="evenodd" clip-rule="evenodd" d="M55.8019 50.8416H59.2242C60.4429 50.8416 61.4342 49.8492 61.4353 48.6295V45.2082C61.4353 43.9885 60.4429 42.9961 59.2242 42.9961H55.8019C54.5832 42.9961 53.5908 43.9895 53.5908 45.2082V48.6295C53.5908 49.8492 54.5832 50.8416 55.8019 50.8416ZM54.9264 45.2093C54.9273 44.7261 55.3187 44.3347 55.8019 44.3338H59.2242C59.7071 44.335 60.098 44.7264 60.0986 45.2093V48.6305C60.098 49.1134 59.7071 49.5049 59.2242 49.506H55.8019C55.3185 49.5056 54.9268 49.1139 54.9264 48.6305V45.2093Z" fill="#474341"/>
<path d="M69.2932 50.1733H64.1326C63.7611 50.1721 63.4602 49.8712 63.459 49.4996V44.3401C63.4599 43.9685 63.7609 43.6674 64.1326 43.6665H69.2932C69.6648 43.6674 69.9659 43.9685 69.9668 44.3401V49.4996C69.9659 49.8713 69.6648 50.1724 69.2932 50.1733Z" fill="#F7BE15"/>
<path fill-rule="evenodd" clip-rule="evenodd" d="M65.0021 50.8416H68.4244C69.6441 50.8416 70.6355 49.8492 70.6355 48.6295V45.2082C70.6355 43.9885 69.6431 42.9961 68.4244 42.9961H65.0021C63.7823 42.9961 62.791 43.9895 62.791 45.2082V48.6295C62.791 49.8492 63.7834 50.8416 65.0021 50.8416ZM64.1276 45.2093C64.1282 44.7264 64.5192 44.335 65.0021 44.3338H68.4233C68.9067 44.3342 69.2984 44.7259 69.2988 45.2093V48.6305C69.2985 49.1135 68.9074 49.5052 68.4244 49.506H65.0021C64.5192 49.5049 64.1282 49.1134 64.1276 48.6305V45.2093Z" fill="#474341"/>
<path d="M78.2688 50.1733H73.1082C72.7366 50.1721 72.4357 49.8712 72.4346 49.4996V44.3401C72.4354 43.9685 72.7365 43.6674 73.1082 43.6665H78.2688C78.6404 43.6674 78.9415 43.9685 78.9424 44.3401V49.4996C78.9415 49.8713 78.6404 50.1724 78.2688 50.1733Z" fill="#0F95BC"/>
<path fill-rule="evenodd" clip-rule="evenodd" d="M73.9777 50.8416H77.4C78.6197 50.8416 79.611 49.8492 79.611 48.6295V45.2082C79.611 43.9885 78.6187 42.9961 77.4 42.9961H73.9777C72.759 42.9961 71.7666 43.9895 71.7666 45.2082V48.6295C71.7666 49.8492 72.759 50.8416 73.9777 50.8416ZM73.1032 45.2093C73.1041 44.7261 73.4956 44.3347 73.9787 44.3338H77.401C77.8839 44.335 78.2749 44.7264 78.2755 45.2093V48.6305C78.2749 49.1134 77.8839 49.5049 77.401 49.506H73.9787C73.4954 49.5056 73.1037 49.1139 73.1032 48.6305V45.2093Z" fill="#474341"/>
<path d="M60.093 59.3744H54.9324C54.5609 59.3733 54.26 59.0723 54.2588 58.7008V53.5413C54.2597 53.1696 54.5607 52.8686 54.9324 52.8677H60.093C60.4646 52.8686 60.7657 53.1696 60.7666 53.5413V58.7008C60.765 59.0722 60.4643 59.3728 60.093 59.3744Z" fill="#92BE33"/>
<path fill-rule="evenodd" clip-rule="evenodd" d="M55.8019 60.0432H59.2242C60.4429 60.0432 61.4342 59.0508 61.4353 57.8321V54.4098C61.4353 53.19 60.4429 52.1987 59.2242 52.1987H55.8019C54.5832 52.1987 53.5908 53.1911 53.5908 54.4098V57.8321C53.5908 59.0519 54.5832 60.0432 55.8019 60.0432ZM54.9264 54.4098C54.9273 53.9268 55.3189 53.5356 55.8019 53.5354H59.2242C59.7068 53.5361 60.0979 53.9272 60.0986 54.4098V57.8321C60.0979 58.3147 59.7068 58.7058 59.2242 58.7065H55.8019C55.3188 58.7065 54.927 58.3152 54.9264 57.8321V54.4098Z" fill="#474341"/>
<path d="M69.2932 59.3744H64.1326C63.7611 59.3733 63.4602 59.0723 63.459 58.7008V53.5413C63.4599 53.1696 63.7609 52.8686 64.1326 52.8677H69.2932C69.6648 52.8686 69.9659 53.1696 69.9668 53.5413V58.7008C69.9656 59.0723 69.6647 59.3733 69.2932 59.3744Z" fill="#9478B5"/>
<path fill-rule="evenodd" clip-rule="evenodd" d="M65.0021 60.0432H68.4244C69.6441 60.0432 70.6355 59.0508 70.6355 57.8321V54.4098C70.6355 53.19 69.6431 52.1987 68.4244 52.1987H65.0021C63.7823 52.1987 62.791 53.1911 62.791 54.4098V57.8321C62.791 59.0519 63.7834 60.0432 65.0021 60.0432ZM64.1276 54.4098C64.1284 53.9272 64.5194 53.5361 65.0021 53.5354H68.4233C68.9064 53.5354 69.2982 53.9267 69.2988 54.4098V57.8321C69.2984 58.3149 68.9071 58.7061 68.4244 58.7065H65.0021C64.5194 58.7058 64.1284 58.3147 64.1276 57.8321V54.4098Z" fill="#474341"/>
<path d="M78.2688 59.3744H73.1082C72.7366 59.3733 72.4357 59.0723 72.4346 58.7008V53.5413C72.4354 53.1696 72.7365 52.8686 73.1082 52.8677H78.2688C78.6404 52.8686 78.9415 53.1696 78.9424 53.5413V58.7008C78.9412 59.0723 78.6403 59.3733 78.2688 59.3744Z" fill="#0D946D"/>
<path fill-rule="evenodd" clip-rule="evenodd" d="M73.9777 60.0432H77.4C78.6197 60.0432 79.611 59.0508 79.611 57.8321V54.4098C79.611 53.19 78.6187 52.1987 77.4 52.1987H73.9777C72.759 52.1987 71.7666 53.1911 71.7666 54.4098V57.8321C71.7666 59.0519 72.759 60.0432 73.9777 60.0432ZM73.1032 54.4098C73.1041 53.9268 73.4957 53.5356 73.9787 53.5354H77.401C77.8837 53.5361 78.2747 53.9272 78.2755 54.4098V57.8321C78.2747 58.3147 77.8837 58.7058 77.401 58.7065H73.9787C73.4956 58.7065 73.1038 58.3152 73.1032 57.8321V54.4098Z" fill="#474341"/>
<path fill-rule="evenodd" clip-rule="evenodd" d="M67.7897 72.845C67.4751 72.8449 67.2033 72.6252 67.1372 72.3177C67.0712 72.0102 67.2288 71.6982 67.5155 71.569L78.7695 66.5189C79.1042 66.3638 79.5016 66.5189 79.6525 66.8536C79.7254 67.015 79.731 67.1988 79.668 67.3643C79.6049 67.5299 79.4785 67.6634 79.3167 67.7355L68.0627 72.7855C67.9772 72.8252 67.884 72.8455 67.7897 72.845ZM59.0336 76.7752C58.719 76.7751 58.4472 76.5554 58.3812 76.2479C58.3151 75.9403 58.4727 75.6284 58.7595 75.4991L63.5312 73.3582C63.868 73.2031 64.2632 73.3582 64.4141 73.6929C64.4868 73.8543 64.4923 74.0381 64.4293 74.2035C64.3663 74.369 64.24 74.5026 64.0784 74.5748L59.3067 76.7157C59.2211 76.7553 59.1279 76.7756 59.0336 76.7752ZM64.8816 77.1662C64.9921 77.4159 65.2365 77.5646 65.4936 77.5646C65.5862 77.5641 65.6777 77.5446 65.7624 77.5073L78.998 71.6773C79.2164 71.5811 79.367 71.3756 79.3929 71.1383C79.4187 70.901 79.3161 70.6679 79.1235 70.5269C78.9309 70.3858 78.6777 70.3582 78.4593 70.4544L65.2237 76.2843C64.8863 76.4339 64.7333 76.8282 64.8816 77.1662Z" fill="#0F95BC"/>
</svg>
