<svg width="120" height="120" viewBox="0 0 120 120" fill="none" xmlns="http://www.w3.org/2000/svg">
<g id="&#231;&#188;&#150;&#231;&#187;&#132; 56&#229;&#164;&#135;&#228;&#187;&#189;">
<path id="&#229;&#189;&#162;&#231;&#138;&#182;" fill-rule="evenodd" clip-rule="evenodd" d="M57.8619 98.781C58.2255 98.9263 58.6183 98.9989 59.011 98.9989C59.4328 99.0134 59.8401 98.8972 60.1891 98.6502C65.6436 96.3403 70.269 92.4468 73.4399 87.4782C76.6108 82.5097 78.1962 76.7131 77.978 70.8438C81.4107 68.9987 84.5816 66.7033 87.3743 64.0011C92.5524 59.1052 96.3341 52.9454 98.3559 46.1463C100.363 39.3472 100.538 32.1414 98.8505 25.2406C98.7196 24.7321 98.4432 24.2527 98.0505 23.875C97.6578 23.4973 97.1778 23.2358 96.6396 23.1341C93.3669 22.3641 90.007 21.9864 86.647 22.0009C81.1198 22.0154 75.6362 23.0324 70.4872 25.0372C61.5273 28.4949 54.0074 34.8726 49.1638 43.0954H47.8402C39.8549 43.0664 32.1749 46.1318 26.4441 51.6379C23.8987 54.1221 21.8042 57.0422 20.2769 60.2529C20.0151 60.7905 19.9424 61.3861 20.0442 61.9672C20.146 62.5483 20.4369 63.0859 20.8587 63.4926C21.3096 63.914 21.8623 64.19 22.4733 64.2917C23.0696 64.3934 23.6951 64.3062 24.2478 64.0592C27.4041 62.7081 30.8077 62.0108 34.2404 62.0108C40.6258 61.9963 46.7784 64.4515 51.3602 68.868C54.8074 72.1658 57.1201 76.437 58.0074 81.1005C58.8946 85.7785 58.2837 90.5872 56.291 94.902C56.0292 95.4396 55.9565 96.0352 56.0583 96.6163C56.1601 97.1974 56.451 97.735 56.8728 98.1563C57.1637 98.4178 57.4983 98.6357 57.8619 98.781ZM34.1065 56.2286L34.0949 56.2287H34.1095L34.1065 56.2286ZM55.4765 64.7711C49.763 59.2532 42.0877 56.1881 34.1065 56.2286C32.7257 56.1998 31.3449 56.316 29.9932 56.5774C30.2113 56.3013 30.4586 56.0398 30.7204 55.7928C35.3022 51.3618 41.4548 48.9066 47.8402 48.9502C48.7129 48.9502 49.6729 49.0228 50.5602 49.0955C51.1565 49.1681 51.7674 49.0519 52.3056 48.7759C52.8438 48.4998 53.2801 48.064 53.571 47.541C55.4037 44.1269 57.7601 41.0034 60.5528 38.3012C67.549 31.5893 76.9017 27.8702 86.6324 27.9283C88.9015 27.8992 91.1706 28.0881 93.396 28.4949C94.4869 34.1753 94.1233 40.0446 92.3487 45.5507C90.5597 51.0567 87.4033 56.0398 83.1852 60.035C80.378 62.7808 77.1198 65.0471 73.5562 66.7324C73.0035 66.9794 72.5381 67.3861 72.2326 67.9091C71.9272 68.4321 71.7963 69.0278 71.869 69.638C72.2617 73.1392 71.8399 76.684 70.6326 80.0109C69.4254 83.3233 67.4618 86.3305 64.8873 88.7712C64.7414 88.8732 64.6138 88.9935 64.4843 89.1155L64.4842 89.1156C64.3555 89.2369 64.225 89.36 64.0727 89.4686C64.5382 86.4468 64.4945 83.3668 63.9273 80.3596C62.8218 74.4176 59.8691 68.9697 55.4765 64.7711ZM30.0513 94.8294C29.1204 94.8294 28.1895 94.7858 27.2586 94.6841C26.6187 94.5969 26.0368 94.3064 25.5714 93.856C25.1059 93.4202 24.8005 92.8391 24.6841 92.2144C24.6114 91.793 23.1423 81.1295 30.7204 73.7929C34.3131 70.3353 37.324 68.7808 40.3348 68.7808C43.9421 68.7808 46.4439 71.1779 47.7529 72.4564C49.0766 73.7203 51.4329 75.9721 51.5783 79.299C51.7238 82.2627 50.0365 85.2991 46.3566 88.8875C41.0039 94.0449 33.8622 94.8294 30.0513 94.8294ZM34.9822 77.8898C37.9931 74.9988 39.6076 74.5775 40.3348 74.5775H40.3494C41.1494 74.5775 42.0366 75.0714 43.5784 76.6259C44.5675 77.3668 45.2802 78.4128 45.6293 79.5896C45.7166 80.2288 45.2657 81.8414 42.1821 84.8051C38.5021 88.2628 33.5131 88.9746 30.575 89.0473C30.575 88.2337 30.6477 87.4347 30.7931 86.6502C31.1277 83.3378 32.6113 80.2433 34.9822 77.8898ZM78.3416 50.5773C76.5962 50.5337 74.9235 49.9671 73.5126 48.9792C72.0872 47.9768 70.9963 46.5967 70.3708 44.9986C69.7454 43.386 69.6145 41.6426 69.9927 39.9574C70.3563 38.2867 71.2145 36.7467 72.4654 35.5554C73.7162 34.3496 75.2871 33.5506 76.9889 33.231C78.6907 32.9114 80.4507 33.1002 82.0507 33.783C83.6507 34.4513 85.0179 35.57 85.9779 36.9937C86.9379 38.432 87.447 40.1172 87.447 41.8315C87.4033 44.185 86.4288 46.4369 84.727 48.0785C83.0107 49.7202 80.7125 50.6209 78.3416 50.5773ZM76.2326 39.7685C76.7853 39.231 77.5416 38.9259 78.3416 38.9405H78.3998C79.1853 38.9405 79.9271 39.2455 80.4798 39.7831C81.0325 40.3351 81.3525 41.0615 81.3525 41.8315C81.338 42.616 81.0034 43.3569 80.4507 43.8945C79.8834 44.4465 79.1271 44.7371 78.3416 44.7371C77.5562 44.7226 76.7998 44.4175 76.2471 43.8799C75.6799 43.3424 75.3453 42.616 75.3308 41.8315C75.3453 41.0615 75.6653 40.3206 76.2326 39.7685Z" fill="url(#paint0_linear_229_1175)"/>
</g>
<defs>
<linearGradient id="paint0_linear_229_1175" x1="99.9995" y1="22.0006" x2="20.0006" y2="22.0006" gradientUnits="userSpaceOnUse">
<stop stop-color="#C0EAF3"/>
<stop offset="0.480769" stop-color="#29A7F1"/>
<stop offset="1" stop-color="#1C81EB"/>
</linearGradient>
</defs>
</svg>
